<svg width="0" height="0" class="screen-reader">
   <defs>
    <polygon id="right-arrow" points="418.999,256.001 121.001,462 121.001,50 "/>
    <polygon id="chevron" points="142.332,104.886 197.48,50 402.5,256 197.48,462 142.332,407.113 292.727,256 "/>
		<polygon id="cross" points="438.393,374.595 319.757,255.977 438.378,137.348 374.595,73.607 255.995,192.225 137.375,73.622 73.607,137.352 192.246,255.983 73.622,374.625 137.352,438.393 256.002,319.734 374.652,438.378 "/>
		<path id="close" d="M256,50C142.229,50,50,142.229,50,256s92.229,206,206,206s206-92.229,206-206S369.771,50,256,50zM334.124,378.545l-77.122-77.117l-77.123,77.127l-41.425-41.449l77.106-77.117l-77.115-77.11l41.448-41.424l77.103,77.092l77.09-77.102l41.459,41.432l-77.104,77.108l77.113,77.102L334.124,378.545z"/>
		<path id="minus" d="M256,50C142.229,50,50,142.229,50,256s92.229,206,206,206s206-92.229,206-206S369.771,50,256,50zM382.601,293.432H135.399v-68.862h247.201V293.432z"/>
		<path id="plus" d="M256,50C142.229,50,50,142.229,50,256s92.229,206,206,206s206-92.229,206-206S369.771,50,256,50zM382.601,293.432h-89.17V382.6h-68.861v-89.168h-89.17v-68.862h89.17V135.4h68.861v89.169h89.17V293.432z"/>
		<path id="search" d="M460.5 387.2l-117.1-117.1C392.1 169.2 318.5 50 205 50c-84.7 0-153.6 68.9-153.6 153.6 0 111.7 115.7 185.4 216.3 140.2l118.1 118.1C419.4 464.7 463.4 421.9 460.5 387.2zM205 306.1c-56.5 0-102.5-46-102.5-102.5 0-56.5 46-102.5 102.5-102.5 56.5 0 102.5 46 102.5 102.5C307.5 260.1 261.5 306.1 205 306.1z"/>
		<path id="burger" d="M462,163.5H50v-65h412V163.5z M462,223.5H50v65h412V223.5z M462,348.5H50v65h412V348.5z"/>
		<path id="statement" d="M339.527,370.312H171.505v-30h168.022V370.312z M339.495,314.896h-167.99v-30h167.99V314.896zM339.495,259.562h-167.99v-30h167.99V259.562z M297.818,90v85.75h85.864V422H128.317V90H297.818 M322.818,50H88.317v412h335.365V150.75L322.818,50z"/>
    <polygon id="arrow-pointy" points="302.313,95.548 185.758,95.548 301.908,212.254 50,212.254 50,299.746 301.908,299.746 185.758,416.452 302.313,416.452 462,256 "/>
		<path id="checkbox" d="M224.913,342.268l-77.401-77.423l32.956-32.962l44.443,44.454l102.606-102.605l32.972,32.949
	L224.913,342.268z M256,111c38.73,0,75.144,15.083,102.53,42.47S401,217.27,401,256s-15.083,75.144-42.47,102.53S294.73,401,256,401
	s-75.144-15.083-102.53-42.47S111,294.73,111,256s15.083-75.144,42.47-102.53S217.27,111,256,111z M256,71
	C153.827,71,71,153.828,71,256s82.827,185,185,185c102.172,0,185-82.828,185-185S358.172,71,256,71z"/>
    <path id="heart" d="M450.703,124.225C410.233,41.419,287.288,47.821,256,119.967c-31.288-72.146-154.233-78.548-194.703,4.257C13.59,221.837,124.309,314.82,256,448.014C387.691,314.82,498.41,221.837,450.703,124.225z"/>
    <circle id="circle" cx="256" cy="256" r="206"/>
    <path id="tick" d="M50,236.16c47.389,9.879,111.237,24.502,157.389,54.545C261.584,218.087,356.056,148.706,462,92.873c-100.611,99.166-185.675,213.119-242.136,326.254C174.349,354.473,126.438,298.773,50,236.16z"/>
		<path id="user" d="M377.055,170.75c0,66.275-53.726,120-120,120s-120-53.725-120-120c0-66.273,53.726-120,120-120
	S377.055,104.477,377.055,170.75z M356.101,296.41c-27.968,22.084-62.633,34.34-99.046,34.34c-36.835,0-71.839-12.543-99.934-35.051
	C83.067,322.875,50,417.877,50,461.25h412C462,418.25,428.678,323.926,356.101,296.41z"/>
		<path id="home" d="M419.492,275.815v166.213H300.725v-90.33h-89.451v90.33H92.507V275.815H50L256,69.972l206,205.844H419.492	z M394.072,88.472h-47.917v38.311l47.917,48.023V88.472z"/>
		<path id="delivery" d="M386.1,306.6h-70.2V275H-10.7v198.8h52.9c-0.4,2.2-0.6,4.5-0.6,6.8c0,21.2,16.6,38.4,37,38.4s37-17.2,37-38.4
	c0-2.3-0.2-4.6-0.6-6.8h18v22.6h169.8v-22.6h18c-0.4,2.2-0.6,4.5-0.6,6.8c0,21.2,16.6,38.4,37,38.4s37-17.2,37-38.4
	c0-2.3-0.2-4.6-0.6-6.8h31.1V397v-25.1L386.1,306.6z M315.9,374.4v-49.7h60.5l29.5,49.7H315.9z"/>
		<path id="locator" d="M222,155c-91.3,0-165.3,74-165.3,165.3c0,2,0.1,3.9,0.1,6c0.6,17.4,3.9,34,9.5,49.6C101.6,491.8,222,643,222,643
	s120.4-151.2,155.7-267.1c5.6-15.6,8.8-32.3,9.5-49.7c0.1-2,0.2-4,0.2-6C387.3,229,313.3,155,222,155z M222,401.2
	c-44.7,0-81-36.2-81-81c0-44.7,36.2-80.9,81-80.9c44.7,0,81,36.2,81,80.9C303,365,266.7,401.2,222,401.2z"/>
    <path id="help" d="M249.8,18.7C186,18.7,144.5,47,125.7,81.1S108,150.7,108,165.4h56.7c0-14.7,1.1-37.7,10.6-55
	s24.8-33,74.5-33c37.7,0,58.3,10,69.6,20.6c11.3,10.7,15.5,23.5,15.5,38c0,48.9-19.2,63.4-47.9,91.7c-28.7,28.2-65.6,69.6-65.6,143
	v14.7h56.7v-14.7c0-55.6,19.9-72.9,47.9-100.4c28-27.5,65.6-65.8,65.6-134.3c0-28-10-58.9-34.1-81.6S297.3,18.7,249.8,18.7
	L249.8,18.7z M221.4,429.3V488h56.7v-58.7H221.4z"/>
    <path id="my-account" d="M434.3,464.3c0,0-55.7-85-106.9-148.1c44.8-26.1,75-74.6,75-130.2c0-83.1-67.4-150.5-150.5-150.5
	S101.5,102.9,101.5,186c0,55.6,30.1,104.1,74.9,130.2C125.7,379.3,73.7,464.3,73.7,464.3H434.3z"/>
    <path id="store-finder" d="M255.6,24.7c-86.3,0-156.3,70-156.3,156.3c0,1.9,0.1,3.7,0.1,5.7c0.6,16.4,3.7,32.1,9,46.9C141.8,343.1,255.6,486,255.6,486
	s113.8-142.9,147.2-252.5c5.3-14.7,8.3-30.5,9-47c0.1-1.9,0.2-3.8,0.2-5.7C411.9,94.7,341.9,24.7,255.6,24.7z M255.6,257.5
	c-42.3,0-76.6-34.2-76.6-76.6c0-42.3,34.2-76.5,76.6-76.5c42.3,0,76.6,34.2,76.6,76.5C332.2,223.3,297.9,257.5,255.6,257.5z"/>
    <g id="track-order">
	    <circle cx="121" cy="397.4" r="36.6"/>
	    <circle cx="391.2" cy="397.4" r="36.6"/>
	    <path d="M481.3,329.5h-11.8c-3.9,0-6.5-3.3-6.5-6.5v-84.9c0-0.7-0.7-1.3-0.7-2l-47.7-99.2c-1.3-2.6-3.3-3.9-6.5-3.9h-67.2
	      c-2.6,0-5.2-2-5.2-5.2V89.9c0-2.6-2-3.9-3.9-3.9H28.3c-2.6,0-3.9,2-3.9,3.9v292.5c0,2,2,3.9,3.9,3.9H57c2.6,0,5.9-2,6.5-4.6
	      c7.2-25.5,30-43.7,57.4-43.7c27.4,0,50.3,18.3,57.4,43.7c0.7,2.6,3.3,4.6,6.5,4.6h142.3c2.6,0,5.9-2,6.5-4.6
	      c7.2-25.5,30-43.7,57.4-43.7c27.4,0,50.3,18.3,57.4,43.7c0.7,2.6,3.3,4.6,6.5,4.6H481c3.9,0,6.5-3.3,6.5-6.5v-43.1
	      C487.8,332.8,484.6,329.5,481.3,329.5z M428.4,237.5h-78.3c-2.6,0-4.6-2-4.6-4.6v-78.3c0-2.6,2-4.6,4.6-4.6h43.7
	      c2,0,3.3,1.3,4.6,2.6l34.6,78.3C434.3,233.6,431.7,237.5,428.4,237.5z"/>
		</g>
    <path id="wish-list" d="M343.4,50.9c5.4,0,11.1,0.3,17.2,1c37.2,4.4,80.3,45.1,85.6,123v25.9c-4.8,74.7-52.1,166.7-190.2,282.2
			C117.8,367.6,70.6,275.5,65.7,200.8v-25.9c5.3-78,48.3-118.7,85.6-123c6.1-0.7,11.9-1,17.2-1c43.1,0,63.7,22.2,87.4,55.8
			C279.6,73,300.3,50.9,343.4,50.9 M343.4,100.4c-24.8,0-35,9-55.4,38l-31.9,45.4l-31.9-45.3c-20.4-29-30.8-38-55.4-38
			c-4,0-8.5,0.2-13.1,0.8c-17.2,2-43.9,23.9-48.1,75.7v21.7c5.1,65.2,55,140.2,148.6,223.2c93.6-83,143.5-157.9,148.6-223.2V177
			c-4-51.9-30.9-73.8-48.1-75.7C351.8,100.8,347.4,100.4,343.4,100.4L343.4,100.4z"/> 
    <path id="burger-menu" d="M462,163.5H50v-65h412V163.5z M462,223.5H50v65h412V223.5z M462,348.5H50v65h412V348.5z"/>
  </defs>
</svg>